<?xml version="1.0" encoding="UTF-8"?>
<svg id="b" data-name="Layer 2" xmlns="http://www.w3.org/2000/svg" width="241.73" height="94.25" viewBox="0 0 241.73 94.25">
  <g id="c" data-name="Layer 1">
    <g>
      <g>
        <path d="M239.961,6.426c-1.179-1.98-2.788-3.546-4.828-4.698-2.04-1.152-4.284-1.728-6.733-1.728-2.468,0-4.723.576-6.767,1.728-2.044,1.152-3.658,2.718-4.842,4.698-1.184,1.98-1.775,4.154-1.775,6.521s.592,4.541,1.775,6.521c1.183,1.98,2.797,3.547,4.842,4.698,2.044,1.152,4.3,1.728,6.767,1.728,2.449,0,4.693-.576,6.733-1.728,2.039-1.151,3.649-2.718,4.828-4.698,1.179-1.98,1.769-4.154,1.769-6.521s-.589-4.541-1.769-6.521ZM238.145,18.478c-.988,1.675-2.338,2.997-4.049,3.967-1.712.969-3.61,1.454-5.695,1.454s-4.004-.485-5.729-1.454c-1.725-.97-3.082-2.292-4.07-3.967-.988-1.675-1.482-3.519-1.482-5.531,0-2.03.494-3.883,1.482-5.559.988-1.675,2.342-3.002,4.063-3.981,1.721-.979,3.633-1.468,5.736-1.468,2.076,0,3.972.489,5.688,1.468,1.716.979,3.068,2.306,4.056,3.981.988,1.675,1.482,3.528,1.482,5.559,0,2.012-.494,3.856-1.482,5.531Z" fill="#201815"/>
        <path d="M233.864,17.972l-.164-2.226c-.046-.646-.189-1.184-.43-1.612-.241-.428-.597-.758-1.065-.99-.134-.066-.305-.109-.462-.161.265-.094.513-.203.729-.337.555-.346.958-.781,1.208-1.304.25-.523.376-1.113.376-1.769,0-.837-.196-1.552-.587-2.144-.392-.592-.949-1.04-1.673-1.345-.724-.305-1.577-.458-2.561-.458h-5.941v14.313h1.871v-6.05h4.302c.583,0,1.042.073,1.379.218.337.146.585.383.744.71.159.327.261.783.307,1.366l.136,1.789c.027.465.082.856.164,1.175.082.319.209.583.382.792h1.926c-.2-.291-.348-.585-.444-.881-.095-.296-.162-.658-.198-1.086ZM229.384,12.182h-4.22v-4.849h4.07c.628,0,1.158.091,1.591.273.432.182.76.455.983.819.223.364.335.811.335,1.338,0,.519-.107.959-.321,1.318-.214.359-.528.633-.942.819-.414.187-.913.28-1.495.28Z" fill="#201815"/>
      </g>
      <polygon points="210.94 0 170.774 0 148.052 0 98.93 0 98.269 0 73.689 0 85.722 12.034 0 94.25 72.504 94.25 148.052 21.792 148.052 68.376 122.178 68.376 148.052 94.25 210.94 94.25 236.182 94.25 210.94 69.009 210.94 0" fill="#201815"/>
    </g>
  </g>
</svg>