<?xml version="1.0" encoding="UTF-8"?>
<svg id="b" data-name="Layer 2" xmlns="http://www.w3.org/2000/svg" width="662.612" height="107.807" viewBox="0 0 662.612 107.807">
  <g id="c" data-name="Layer 1">
    <g>
      <g>
        <g>
          <polygon points="171.173 0 138.579 0 120.141 0 80.279 0 79.743 0 59.797 0 69.562 9.765 0 76.482 58.836 76.482 120.141 17.684 120.141 55.486 99.145 55.486 120.141 76.482 171.173 76.482 191.656 76.482 171.173 55.999 171.173 0" fill="#fff"/>
          <path d="M503.149,0h-5.55s-86.583,0-86.583,0h0s-31.035,0-31.035,0l-41.689,39.984,14.167,36.498h91.023l48.478-15.716,29-27.814L503.149,0ZM387.625,49.097l23.878-22.901h57.664l-23.878,22.901h-57.664Z" fill="#fff"/>
          <path d="M662.612,18.855l-11.432-18.855h-27.744s-49.193,0-49.193,0h0s-51.032,0-51.032,0v56.418l-20.063,20.063h71.096v-23.177h52.702l35.668-34.45ZM574.242,17.824h30.693l-30.693,29.571v-29.571Z" fill="#fff"/>
          <polygon points="309.932 0 248.627 59.068 248.627 0 197.594 0 177.112 0 197.594 20.483 197.594 76.482 230.553 76.482 198.041 107.807 276.533 88.868 368.767 0 309.932 0" fill="#fff"/>
        </g>
        <path d="M645.787,76.482c-2.467,0-4.723-.576-6.767-1.728-2.044-1.152-3.658-2.718-4.841-4.698-1.184-1.98-1.775-4.154-1.775-6.521s.592-4.541,1.775-6.521c1.183-1.98,2.797-3.546,4.841-4.698,2.044-1.152,4.3-1.728,6.767-1.728,2.449,0,4.693.576,6.733,1.728,2.039,1.152,3.648,2.718,4.828,4.698,1.179,1.98,1.768,4.154,1.768,6.521s-.589,4.541-1.768,6.521c-1.179,1.98-2.788,3.547-4.828,4.698-2.04,1.152-4.284,1.728-6.733,1.728ZM645.787,74.487c2.085,0,3.983-.485,5.695-1.454,1.711-.97,3.061-2.292,4.049-3.967.988-1.675,1.482-3.519,1.482-5.531,0-2.03-.494-3.883-1.482-5.559-.988-1.675-2.34-3.002-4.056-3.981-1.716-.979-3.612-1.468-5.688-1.468-2.103,0-4.015.489-5.736,1.468-1.721.978-3.075,2.306-4.063,3.981-.988,1.675-1.482,3.528-1.482,5.559,0,2.012.494,3.856,1.482,5.531.988,1.675,2.344,2.997,4.07,3.967,1.725.969,3.635,1.454,5.729,1.454ZM640.679,70.527v-14.313h5.941c.983,0,1.837.153,2.561.458.724.305,1.281.753,1.673,1.345.391.592.587,1.306.587,2.144,0,.656-.125,1.245-.376,1.769-.25.524-.653.959-1.209,1.304-.556.346-1.275.56-2.158.642l.068-.573c.746.055,1.354.198,1.823.43.469.232.824.563,1.065.99.241.428.384.965.43,1.612l.164,2.226c.036.428.103.79.198,1.086.096.296.244.589.444.881h-1.926c-.173-.209-.3-.474-.382-.792-.082-.318-.137-.71-.164-1.175l-.136-1.789c-.046-.583-.148-1.038-.307-1.366-.159-.328-.408-.565-.744-.71-.337-.145-.797-.218-1.379-.218h-5.49v-1.707h5.408c.582,0,1.081-.093,1.495-.28.414-.186.728-.46.942-.819.214-.36.321-.799.321-1.318,0-.528-.111-.974-.335-1.338-.223-.364-.551-.637-.983-.819-.433-.182-.963-.273-1.591-.273h-4.944l.874-.874v13.48h-1.871Z" fill="#fff"/>
      </g>
      <g>
        <path d="M288.385,105.623l7.331-18.86h3.298l7.483,18.86h-3.006l-4.728-12.311c-.229-.609-.454-1.206-.672-1.791s-.427-1.153-.625-1.705c-.199-.552-.407-1.139-.623-1.761h.98c-.199.618-.392,1.2-.58,1.745-.188.546-.388,1.112-.603,1.699s-.436,1.19-.666,1.808l-4.648,12.317h-2.94ZM292.736,100.683v-2.45h9.41v2.45h-9.41Z" fill="#fff"/>
        <path d="M303.497,89.319v-2.556h15.376v2.556h-15.376ZM309.715,105.623v-17.601h2.914v17.601h-2.914Z" fill="#fff"/>
        <path d="M332.077,105.623v-8.84l.728,2.516-7.86-12.536h3.225l3.702,6.013c.397.645.767,1.258,1.109,1.841.342.583.666,1.146.97,1.689h-.841c.296-.534.609-1.079.94-1.635.331-.556.713-1.188,1.146-1.894l3.662-6.013h3.172l-7.814,12.489.702-2.516v8.887h-2.841Z" fill="#fff"/>
        <path d="M350.196,106.047c-1.837,0-3.449-.411-4.838-1.232-1.388-.821-2.463-1.975-3.225-3.463-.761-1.488-1.142-3.207-1.142-5.158s.381-3.664,1.142-5.152c.762-1.488,1.837-2.643,3.225-3.467,1.388-.823,3.001-1.235,4.838-1.235s3.443.412,4.834,1.235c1.391.824,2.467,1.979,3.228,3.467.762,1.488,1.142,3.205,1.142,5.152s-.381,3.671-1.142,5.158c-.761,1.488-1.837,2.642-3.228,3.463-1.391.821-3.002,1.232-4.834,1.232ZM350.196,103.491c1.245,0,2.336-.292,3.274-.878.938-.585,1.663-1.428,2.176-2.53.512-1.101.768-2.398.768-3.89s-.256-2.788-.768-3.887c-.512-1.099-1.236-1.942-2.172-2.53-.936-.587-2.028-.881-3.278-.881s-2.342.294-3.278.881c-.936.587-1.66,1.43-2.172,2.53-.512,1.1-.768,2.395-.768,3.887s.256,2.789.768,3.89c.512,1.101,1.236,1.945,2.172,2.53.936.585,2.029.878,3.278.878Z" fill="#fff"/>
        <path d="M369.24,106.02c-1.594,0-2.962-.289-4.106-.868-1.143-.578-2.018-1.423-2.622-2.533-.605-1.11-.907-2.454-.907-4.03v-11.827h2.874v11.807c0,1.108.184,2.028.553,2.758.369.731.907,1.274,1.616,1.629.709.356,1.573.533,2.593.533s1.884-.178,2.593-.533c.709-.355,1.249-.898,1.619-1.629.371-.73.556-1.65.556-2.758v-11.807h2.874v11.827c0,1.576-.303,2.92-.911,4.033-.607,1.113-1.481,1.957-2.622,2.533s-2.511.864-4.109.864Z" fill="#fff"/>
        <path d="M379.855,105.623v-18.86h8.225c1.333,0,2.49.208,3.47.622.98.415,1.734,1.015,2.261,1.798.527.784.791,1.718.791,2.804,0,.896-.167,1.679-.5,2.347-.334.669-.809,1.205-1.427,1.609-.619.404-1.347.672-2.186.805v-.43c.83.124,1.503.351,2.02.682s.903.769,1.159,1.315.408,1.217.457,2.017l.185,2.967c.022.305.058.594.106.868.049.274.118.535.209.785.09.249.202.473.334.672h-2.954c-.154-.238-.275-.519-.361-.841s-.144-.685-.175-1.086c-.005-.071-.009-.146-.013-.225-.005-.08-.009-.161-.014-.245l-.086-2.027c-.031-.834-.161-1.492-.391-1.973-.229-.481-.569-.823-1.02-1.026s-1.044-.305-1.781-.305h-6.595v-2.397h6.556c.706,0,1.323-.12,1.851-.361s.938-.607,1.232-1.099c.294-.492.441-1.094.441-1.805,0-.68-.15-1.245-.45-1.695-.3-.451-.73-.785-1.288-1.003-.559-.219-1.227-.328-2.003-.328h-6.331l1.152-1.232v17.648h-2.874Z" fill="#fff"/>
        <path d="M410.9,106.047c-1.837,0-3.449-.411-4.838-1.232-1.388-.821-2.463-1.975-3.225-3.463-.761-1.488-1.142-3.207-1.142-5.158s.381-3.664,1.142-5.152c.762-1.488,1.837-2.643,3.225-3.467,1.388-.823,3.001-1.235,4.838-1.235s3.443.412,4.834,1.235c1.391.824,2.467,1.979,3.228,3.467.762,1.488,1.142,3.205,1.142,5.152s-.381,3.671-1.142,5.158c-.761,1.488-1.837,2.642-3.228,3.463-1.391.821-3.002,1.232-4.834,1.232ZM410.9,103.491c1.245,0,2.336-.292,3.274-.878.938-.585,1.663-1.428,2.176-2.53.512-1.101.768-2.398.768-3.89s-.256-2.788-.768-3.887c-.512-1.099-1.236-1.942-2.172-2.53-.936-.587-2.028-.881-3.278-.881s-2.342.294-3.278.881c-.936.587-1.66,1.43-2.172,2.53-.512,1.1-.768,2.395-.768,3.887s.256,2.789.768,3.89c.512,1.101,1.236,1.945,2.172,2.53.936.585,2.029.878,3.278.878Z" fill="#fff"/>
        <path d="M425.7,105.623l-5.298-18.86h2.934l3.046,11.297c.19.742.395,1.589.616,2.543.22.954.461,2.026.722,3.218h-.669c.3-1.391.553-2.545.758-3.464.205-.918.39-1.7.553-2.344l3.006-11.251h3.053l3.033,11.271c.229.918.447,1.83.652,2.735s.425,1.923.659,3.053h-.663c.274-1.249.512-2.31.715-3.182.203-.872.41-1.743.622-2.612l3-11.264h2.954l-5.291,18.86h-3.179l-3.192-11.86c-.198-.795-.398-1.607-.599-2.437-.201-.83-.403-1.678-.606-2.543l.788-.291c-.208,1.011-.407,1.932-.6,2.765-.192.832-.4,1.661-.626,2.486l-3.218,11.88h-3.172Z" fill="#fff"/>
        <path d="M447.242,105.623v-18.86h3.304l7.47,11.781c.335.539.676,1.109,1.023,1.711.346.603.727,1.281,1.142,2.037.036.062.069.125.103.188.033.064.067.129.103.195l-.331,1.04c-.013-.185-.024-.366-.033-.543-.009-.176-.016-.349-.02-.517-.044-.927-.075-1.708-.093-2.344-.018-.635-.027-1.216-.027-1.742v-11.807h2.788v18.86h-3.284l-6.695-10.523c-.375-.596-.768-1.235-1.179-1.917-.41-.682-.792-1.333-1.146-1.954-.353-.62-.636-1.138-.847-1.553l.358-.874c.031.737.059,1.491.086,2.261.026.771.047,1.492.063,2.166.015.673.023,1.281.023,1.824v10.569h-2.808Z" fill="#fff"/>
        <path d="M471.193,105.623v-18.86h8.073c1.386,0,2.56.249,3.523.748.963.499,1.689,1.195,2.179,2.089.49.894.735,1.93.735,3.109,0,1.192-.245,2.237-.735,3.135-.49.898-1.216,1.597-2.179,2.096s-2.139.748-3.53.748h-5.192v6.933h-2.874ZM479.153,96.173c.795,0,1.462-.136,2.003-.407.541-.271.946-.664,1.215-1.179.269-.514.404-1.14.404-1.877,0-.733-.136-1.354-.407-1.864-.271-.51-.676-.898-1.215-1.165s-1.208-.401-2.006-.401h-5.079v6.893h5.086Z" fill="#fff"/>
        <path d="M483.749,105.623l7.331-18.86h3.298l7.483,18.86h-3.006l-4.728-12.311c-.229-.609-.454-1.206-.672-1.791-.219-.585-.427-1.153-.625-1.705-.199-.552-.407-1.139-.623-1.761h.98c-.199.618-.392,1.2-.58,1.745-.188.546-.388,1.112-.603,1.699s-.436,1.19-.666,1.808l-4.648,12.317h-2.94ZM488.099,100.683v-2.45h9.41v2.45h-9.41Z" fill="#fff"/>
        <path d="M510.37,106.047c-1.708,0-3.235-.4-4.579-1.199-1.344-.799-2.394-1.942-3.149-3.43-.755-1.488-1.132-3.229-1.132-5.224s.376-3.744,1.129-5.232c.752-1.488,1.801-2.63,3.145-3.427,1.344-.797,2.884-1.195,4.619-1.195,1.364,0,2.613.243,3.748.729,1.134.486,2.094,1.23,2.881,2.232.786,1.002,1.322,2.243,1.609,3.722h-2.894c-.247-.967-.635-1.756-1.162-2.367-.527-.612-1.148-1.057-1.861-1.338-.713-.28-1.491-.42-2.334-.42-1.183,0-2.218.288-3.106.864-.887.576-1.574,1.412-2.059,2.506-.486,1.095-.729,2.402-.729,3.92s.244,2.827.732,3.924c.488,1.097,1.176,1.935,2.063,2.513.888.578,1.923.868,3.106.868.879,0,1.705-.175,2.48-.527.775-.351,1.43-.886,1.967-1.606s.875-1.609,1.017-2.669h2.9c-.172,1.572-.659,2.911-1.46,4.019-.801,1.108-1.806,1.942-3.016,2.5-1.21.558-2.514.838-3.914.838Z" fill="#fff"/>
        <path d="M521.091,105.623v-18.86h13.496v2.563h-10.622v13.734h10.523v2.563h-13.397ZM522.6,97.127v-2.523h10.979v2.523h-10.979Z" fill="#fff"/>
      </g>
    </g>
  </g>
</svg>
